# xmcd CD database file
#
# Track frame offsets:
#	150
#	15325
#	31965
#	44552
#	57272
#	71212
#	86405
#	99535
#	112335
#	127190
#	144687
#	158890
#	172832
#	187217
#	200755
#	216805
#
# Disc length: 3077 seconds
#
# Revision: 3
# Processed by: cddbd v1.5.2PL0 Copyright (c) Steve Scherf et al.
# Submitted via: CDex 1.70beta2
#
DISCID=f30c0310
DTITLE=麻丘めぐみ - BEST SELECTION(1972/77)
DYEAR=1990
DGENRE=Pop
TTITLE0=芽ばえ
TTITLE1=悲しみよこんにちは
TTITLE2=女の子なんだもん
TTITLE3=森を駈ける恋人たち
TTITLE4=わたしの彼は左きき
TTITLE5=アルプスの少女
TTITLE6=ときめき
TTITLE7=白い部屋
TTITLE8=悲しみのシーズン
TTITLE9=雪の中の二人
TTITLE10=水色のページ
TTITLE11=恋のあやとり
TTITLE12=美しく燃えながら
TTITLE13=白い微笑
TTITLE14=夏八景
TTITLE15=ねえ
EXTD=YEAR: 1990
EXTT0=
EXTT1=
EXTT2=
EXTT3=
EXTT4=
EXTT5=
EXTT6=
EXTT7=
EXTT8=
EXTT9=
EXTT10=
EXTT11=
EXTT12=
EXTT13=
EXTT14=
EXTT15=
PLAYORDER=
